<svg id="play-btn" viewBox="0 0 34.2 34" style="enable-background:new 0 0 34.2 34;" xml:space="preserve">
  <polygon id="play" style="fill:#F9632F;" points="12.2,24.1 24.6,17 12.2,10 "/>
  <g id="circle">
  	<g>
  		<path style="fill:#F9632F;" d="M33.2,17c0,8.8-7.2,16-16,16s-16-7.2-16-16c0-0.4,0.3-0.8,0.8-0.8c0.4,0,0.8,0.3,0.8,0.8
  			c0,8,6.5,14.5,14.5,14.5S31.6,25,31.6,17c0-8-6.5-14.5-14.5-14.5c-0.4,0-0.8-0.3-0.8-0.8c0-0.4,0.3-0.8,0.8-0.8
  			C26,1,33.2,8.2,33.2,17z"/>
  	</g>
  </g>
</svg>
